<svg width="309" height="100" viewBox="0 0 309 100" fill="none" xmlns="http://www.w3.org/2000/svg">
<g clip-path="url(#clip0_2997_17815)">
<rect width="426" height="100" transform="translate(-6)" fill="url(#paint0_linear_2997_17815)" fill-opacity="0.1"/>
<mask id="mask0_2997_17815" style="mask-type:alpha" maskUnits="userSpaceOnUse" x="-6" y="-2" width="426" height="138">
<rect x="-6" y="-2" width="426" height="137.864" fill="#FFF9F5"/>
</mask>
<g mask="url(#mask0_2997_17815)">
<path d="M-24.898 0.31209C-19.4299 -29.8606 5.21098 -91.8149 60.0298 -98.2499C128.553 -106.294 49.5574 7.41689 106.545 29.1094C152.135 46.4634 184.555 -52.5137 195.067 -104.171" stroke="#F3F3F3" stroke-width="1.37864"/>
<path d="M-33.1697 11.3404C-27.7016 -18.8323 -3.06075 -80.7865 51.7581 -87.2215C120.282 -95.2653 41.2857 18.4452 98.2732 40.1377C143.863 57.4917 176.283 -41.4853 186.795 -93.1431" stroke="#F3F3F3" stroke-width="1.37864"/>
<path d="M-41.4417 22.3702C-35.9736 -7.80254 -11.3327 -69.7568 43.4861 -76.1917C112.01 -84.2355 33.0137 29.475 90.0012 51.1675C135.591 68.5215 168.012 -30.4556 178.523 -82.1133" stroke="#F3F3F3" stroke-width="1.37864"/>
<path d="M-49.7136 33.3985C-44.2455 3.22578 -19.6046 -58.7284 35.2143 -65.1634C103.738 -73.2072 24.7418 40.5033 81.7294 62.1958C127.319 79.5498 159.74 -19.4272 170.251 -71.085" stroke="#F3F3F3" stroke-width="1.37864"/>
<path d="M-57.9854 44.4283C-52.5173 14.2556 -27.8764 -47.6987 26.9424 -54.1336C95.466 -62.1774 16.47 51.5331 73.4575 73.2256C119.048 90.5796 151.468 -8.39745 161.979 -60.0552" stroke="#F3F3F3" stroke-width="1.37864"/>
<path d="M-66.2573 55.4566C-60.7892 25.2839 -36.1483 -36.6703 18.6706 -43.1053C87.1941 -51.1491 8.19813 62.5614 65.1857 84.2539C110.776 101.608 143.196 2.63087 153.707 -49.0269" stroke="#F3F3F3" stroke-width="1.37864"/>
<path d="M-74.529 66.4864C-69.0609 36.3137 -44.42 -25.6405 10.3988 -32.0755C78.9224 -40.1193 -0.0736001 73.5912 56.914 95.2837C102.504 112.638 134.924 13.6607 145.436 -37.9971" stroke="#F3F3F3" stroke-width="1.37864"/>
<path d="M-82.8008 77.5152C-77.3327 47.3425 -52.6919 -14.6117 2.12699 -21.0467C70.6505 -29.0905 -8.34545 84.62 48.6421 106.313C94.2322 123.667 126.652 24.6895 137.164 -26.9683" stroke="#F3F3F3" stroke-width="1.37864"/>
<path d="M-91.0727 88.5445C-85.6046 58.3718 -60.9637 -3.58244 -6.14486 -10.0174C62.3787 -18.0612 -16.6173 95.6493 40.3703 117.342C85.9603 134.696 118.381 35.7188 128.892 -15.939" stroke="#F3F3F3" stroke-width="1.37864"/>
<path d="M-99.3445 99.5743C-93.8765 69.4016 -69.2356 7.44735 -14.4167 1.01236C54.1068 -7.03138 -24.8892 106.679 32.0984 128.372C77.6885 145.726 110.109 46.7486 120.62 -4.90923" stroke="#F3F3F3" stroke-width="1.37864"/>
<path d="M-107.616 110.603C-102.148 80.4299 -77.5074 18.4757 -22.6886 12.0407C45.835 3.99694 -33.161 117.707 23.8266 139.4C69.4166 156.754 101.837 57.7769 112.348 6.11909" stroke="#F3F3F3" stroke-width="1.37864"/>
<path d="M-115.888 121.632C-110.42 91.4597 -85.7793 29.5055 -30.9604 23.0705C37.5631 15.0267 -41.4329 128.737 15.5547 150.43C61.1448 167.784 93.565 68.8067 104.076 17.1489" stroke="#F3F3F3" stroke-width="1.37864"/>
<path d="M-124.16 132.661C-118.692 102.488 -94.0511 40.5343 -39.2323 34.0993C29.2913 26.0555 -49.7047 139.766 7.28286 161.459C52.8729 178.813 85.2931 79.8355 95.8045 28.1777" stroke="#F3F3F3" stroke-width="1.37864"/>
<path d="M-132.432 143.691C-126.964 113.518 -102.323 51.5636 -47.5041 45.1286C21.0194 37.0848 -57.9766 150.795 -0.98899 172.488C44.6011 189.842 77.0213 90.8648 87.5326 39.207" stroke="#F3F3F3" stroke-width="1.37864"/>
<path d="M-140.704 154.719C-135.236 124.547 -110.595 62.5924 -55.776 56.1574C12.7476 48.1136 -66.2484 161.824 -9.26084 183.517C36.3292 200.871 68.7494 101.894 79.2608 50.2358" stroke="#F3F3F3" stroke-width="1.37864"/>
</g>
</g>
<defs>
<linearGradient id="paint0_linear_2997_17815" x1="213" y1="-61.0294" x2="213" y2="155.147" gradientUnits="userSpaceOnUse">
<stop offset="0.312925" stop-color="#374988"/>
<stop offset="1" stop-color="#374988"/>
</linearGradient>
<clipPath id="clip0_2997_17815">
<rect width="426" height="100" fill="white" transform="translate(-6)"/>
</clipPath>
</defs>
</svg>
