<svg width="142" height="157" viewBox="0 0 142 157" fill="none" xmlns="http://www.w3.org/2000/svg">
<circle cx="63.8023" cy="73.5268" r="51.7792" fill="#F1F1F1"/>
<rect x="43.4893" y="72.4719" width="50.6929" height="70.9701" rx="5.06929" transform="rotate(2.5 43.4893 72.4719)" fill="#EEEEEE" stroke="#CCCCCC" stroke-width="1.44837"/>
<rect x="13.3526" y="68.2266" width="53.5897" height="73.8669" rx="6.51766" transform="rotate(-7.5 13.3526 68.2266)" fill="#FAFAFA" stroke="#CCCCCC" stroke-width="1.44837"/>
<path d="M14.9214 74.594C14.5037 71.4217 16.7368 68.5115 19.9091 68.0939L60.1165 62.8005C63.2888 62.3829 66.199 64.6159 66.6166 67.7882L68.0345 78.558L16.3392 85.3639L14.9214 74.594Z" fill="#EEEEEE"/>
<rect x="77.1028" y="64.2163" width="2.17255" height="7.24185" rx="1.08628" transform="rotate(82.5 77.1028 64.2163)" fill="#CCCCCC"/>
<rect x="57.2626" y="52.2197" width="2.17255" height="7.24185" rx="1.08628" transform="rotate(-7.5 57.2626 52.2197)" fill="#CCCCCC"/>
<rect x="69.9921" y="54.1958" width="2.17255" height="7.24185" rx="1.08628" transform="rotate(37.5 69.9921 54.1958)" fill="#CCCCCC"/>
<rect x="21.7433" y="87.5742" width="42.0027" height="2.89674" rx="1.44837" transform="rotate(-7.5 21.7433 87.5742)" fill="#DCDCDC"/>
<rect x="23.6337" y="101.934" width="42.0027" height="2.89674" rx="1.44837" transform="rotate(-7.5 23.6337 101.934)" fill="#DCDCDC"/>
<rect x="25.5242" y="116.293" width="42.0027" height="2.89674" rx="1.44837" transform="rotate(-7.5 25.5242 116.293)" fill="#DCDCDC"/>
<rect x="22.4995" y="93.3179" width="15.2079" height="2.89674" rx="1.44837" transform="rotate(-7.5 22.4995 93.3179)" fill="#EEEEEE"/>
<rect x="24.39" y="107.678" width="15.2079" height="2.89674" rx="1.44837" transform="rotate(-7.5 24.39 107.678)" fill="#EEEEEE"/>
<rect x="26.2805" y="122.038" width="15.2079" height="2.89674" rx="1.44837" transform="rotate(-7.5 26.2805 122.038)" fill="#EEEEEE"/>
<circle cx="110.586" cy="43.0477" r="26.2005" fill="#F1F1F1"/>
<circle cx="110.372" cy="43.0926" r="15.3022" fill="#F1F1F1" stroke="#B3B3B3" stroke-width="0.730077"/>
<circle cx="110.372" cy="43.0928" r="10.8259" fill="#FFFEFF" stroke="#EEEEEE" stroke-width="0.730077"/>
<path d="M110.372 34.8654C110.372 34.7011 110.238 34.5673 110.074 34.5731C108.018 34.6448 106.053 35.4583 104.546 36.8688C103.039 38.2792 102.098 40.186 101.89 42.2328C101.874 42.3963 101.998 42.5382 102.162 42.5491C102.326 42.5599 102.467 42.4357 102.484 42.2722C102.682 40.3761 103.556 38.6105 104.953 37.3032C106.35 35.996 108.169 35.24 110.074 35.1686C110.238 35.1624 110.372 35.0298 110.372 34.8654Z" fill="#EEEEEE"/>
<rect x="122.3" y="59.7065" width="5.11054" height="15.3316" rx="2.55527" transform="rotate(-45 122.3 59.7065)" fill="#F1F1F1" stroke="#B3B3B3" stroke-width="0.730077"/>
<rect x="127.694" y="60.937" width="0.711226" height="5.96343" rx="0.355613" transform="rotate(-45 127.694 60.937)" fill="white"/>
<rect x="121.781" y="56.0903" width="0.730077" height="2.92031" transform="rotate(-45 121.781 56.0903)" fill="#EEEEEE"/>
<rect x="129.527" y="41.2544" width="7.30077" height="0.730077" rx="0.365039" fill="#EEEEEE"/>
<rect x="84.3854" y="47.2939" width="7.30077" height="0.730077" rx="0.365039" fill="#EEEEEE"/>
<rect x="138.288" y="41.2544" width="3.65039" height="0.730077" rx="0.365039" fill="#EEEEEE"/>
<rect x="131.352" y="43.9331" width="3.65039" height="0.730077" rx="0.365039" fill="#EEEEEE"/>
<rect x="86.2106" y="49.9727" width="3.65039" height="0.730077" rx="0.365039" fill="#EEEEEE"/>
</svg>
