<svg width="64" height="64" viewBox="0 0 64 64" fill="none" xmlns="http://www.w3.org/2000/svg">
<circle cx="32" cy="32" r="32" fill="#BCC2D7"/>
<path d="M37.9426 45.2569V42.514C37.9426 39.4844 35.4866 37.0283 32.4569 37.0283H21.4855C18.4558 37.0283 15.9998 39.4844 15.9998 42.514V45.2569" stroke="white" stroke-width="2.24352" stroke-linecap="round" stroke-linejoin="round"/>
<path fill-rule="evenodd" clip-rule="evenodd" d="M26.9712 31.5427C30.0009 31.5427 32.4569 29.0867 32.4569 26.057C32.4569 23.0273 30.0009 20.5713 26.9712 20.5713C23.9415 20.5713 21.4855 23.0273 21.4855 26.057C21.4855 29.0867 23.9415 31.5427 26.9712 31.5427Z" stroke="white" stroke-width="2.24352" stroke-linecap="round" stroke-linejoin="round"/>
<path d="M46.1714 45.2573V42.5145C46.1695 40.0145 44.4777 37.832 42.0571 37.207" stroke="white" stroke-width="2.24352" stroke-linecap="round" stroke-linejoin="round"/>
<path d="M36.5714 20.75C38.9987 21.3715 40.6965 23.5587 40.6965 26.0643C40.6965 28.5699 38.9987 30.7571 36.5714 31.3786" stroke="white" stroke-width="2.24352" stroke-linecap="round" stroke-linejoin="round"/>
</svg>
