<svg width="24" height="25" viewBox="0 0 24 25" fill="none" xmlns="http://www.w3.org/2000/svg">
<path d="M4 21.5002H13.62C14.1971 21.5005 14.7674 21.3758 15.2916 21.1346C15.8159 20.8934 16.2817 20.5415 16.657 20.1032L21.759 14.1512C21.8658 14.0267 21.9404 13.878 21.9762 13.7179C22.012 13.5579 22.0079 13.3915 21.9642 13.2334C21.9206 13.0753 21.8387 12.9304 21.7258 12.8115C21.6129 12.6925 21.4726 12.6031 21.317 12.5512L19.349 11.8952C18.8734 11.7406 18.3669 11.7056 17.8745 11.7933C17.3821 11.881 16.919 12.0888 16.526 12.3982L13.341 14.9452L12.724 13.7102C12.3935 13.0444 11.8831 12.4846 11.2507 12.094C10.6184 11.7034 9.88926 11.4977 9.146 11.5002H4C2.897 11.5002 2 12.3972 2 13.5002V19.5002C2 20.6032 2.897 21.5002 4 21.5002ZM4 13.5002H9.146C9.909 13.5002 10.594 13.9232 10.935 14.6052L11.382 15.5002H7V17.5002H13.014C13.1679 17.4981 13.3191 17.4605 13.456 17.3902L13.459 17.3892L13.463 17.3872H13.466L13.468 17.3862H13.472L13.473 17.3852C13.484 17.3882 13.476 17.3842 13.476 17.3842C13.488 17.3842 13.478 17.3832 13.478 17.3832H13.479L13.481 17.3822L13.484 17.3812L13.486 17.3802L13.488 17.3792L13.491 17.3782L13.493 17.3772L13.495 17.3762L13.498 17.3742L13.5 17.3732L13.502 17.3722L13.505 17.3712L13.507 17.3702H13.508L13.51 17.3692H13.511L13.513 17.3682L13.515 17.3672C13.526 17.3662 13.518 17.3662 13.518 17.3662L13.52 17.3652C13.5585 17.3419 13.5953 17.3158 13.63 17.2872L17.776 13.9702C18.037 13.7622 18.399 13.6972 18.716 13.8032L19.273 13.9892L15.14 18.8122C14.9499 19.028 14.716 19.201 14.454 19.3196C14.1919 19.4382 13.9077 19.4998 13.62 19.5002H4V13.5002ZM13.761 2.82616C13.3 3.33216 11 5.95716 11 8.00016C11 9.93016 12.57 11.5002 14.5 11.5002C16.43 11.5002 18 9.93016 18 8.00016C18 5.95716 15.7 3.33216 15.239 2.82616C14.86 2.41016 14.14 2.41016 13.761 2.82616ZM16 8.00016C16 8.82716 15.327 9.50016 14.5 9.50016C13.673 9.50016 13 8.82716 13 8.00016C13 7.29216 13.738 6.06616 14.5 5.06616C15.262 6.06616 16 7.29216 16 8.00016Z" fill="#333333" fill-opacity="0.5"/>
</svg>
