<svg width="24" height="25" viewBox="0 0 24 25" fill="none" xmlns="http://www.w3.org/2000/svg">
<g clip-path="url(#clip0_2978_18087)">
<path d="M19 21.4999H5C4.73478 21.4999 4.48043 21.3946 4.29289 21.207C4.10536 21.0195 4 20.7651 4 20.4999V11.4999H1L11.327 2.11192C11.5111 1.9444 11.7511 1.85156 12 1.85156C12.2489 1.85156 12.4889 1.9444 12.673 2.11192L23 11.4999H20V20.4999C20 20.7651 19.8946 21.0195 19.7071 21.207C19.5196 21.3946 19.2652 21.4999 19 21.4999ZM6 19.4999H18V9.65692L12 4.20292L6 9.65692V19.4999Z" fill="#333333" fill-opacity="0.5"/>
</g>
<defs>
<clipPath id="clip0_2978_18087">
<rect width="24" height="24" fill="white" transform="translate(0 0.5)"/>
</clipPath>
</defs>
</svg>
