<svg width="18" height="18" viewBox="0 0 18 18" fill="none" xmlns="http://www.w3.org/2000/svg">
<path d="M1.49988 12.1365C1.16107 12.1365 0.886415 12.4112 0.886415 12.75C0.886415 13.0888 1.16107 13.3635 1.49988 13.3635V12.1365ZM3.74988 6.75H3.13642H3.74988ZM14.2499 6.75H14.8633H14.2499ZM10.2973 15.75L10.828 16.0578C10.9381 15.8681 10.9384 15.6339 10.8289 15.4438C10.7194 15.2537 10.5167 15.1366 10.2973 15.1366V15.75ZM7.70233 15.75V15.1366C7.48294 15.1366 7.28025 15.2537 7.17075 15.4438C7.06124 15.6339 7.0616 15.8681 7.17169 16.0578L7.70233 15.75ZM16.4999 12.1365H1.49988V13.3635H16.4999V12.1365ZM1.49988 13.3635C3.08132 13.3635 4.36334 12.0814 4.36334 10.5H3.13642C3.13642 11.4038 2.40371 12.1365 1.49988 12.1365V13.3635ZM4.36334 10.5V6.75H3.13642V10.5H4.36334ZM4.36334 6.75C4.36334 4.18931 6.43919 2.11346 8.99988 2.11346V0.886537C5.76158 0.886537 3.13642 3.5117 3.13642 6.75H4.36334ZM8.99988 2.11346C11.5606 2.11346 13.6364 4.18931 13.6364 6.75H14.8633C14.8633 3.5117 12.2382 0.886537 8.99988 0.886537V2.11346ZM13.6364 6.75V10.5H14.8633V6.75H13.6364ZM13.6364 10.5C13.6364 12.0814 14.9184 13.3635 16.4999 13.3635V12.1365C15.596 12.1365 14.8633 11.4038 14.8633 10.5H13.6364ZM9.76669 15.4422C9.60809 15.7156 9.31592 15.8839 8.99983 15.8839V17.1108C9.75336 17.1108 10.4499 16.7096 10.828 16.0578L9.76669 15.4422ZM8.99983 15.8839C8.68375 15.8839 8.39158 15.7156 8.23298 15.4422L7.17169 16.0578C7.54979 16.7096 8.24631 17.1108 8.99983 17.1108V15.8839ZM7.70233 16.3635H10.2973V15.1366H7.70233V16.3635Z" fill="#333333"/>
</svg>
