<svg width="24" height="24" viewBox="0 0 24 24" fill="none" xmlns="http://www.w3.org/2000/svg">
<path d="M1.99988 16C1.44759 16 0.999878 16.4477 0.999878 17C0.999878 17.5523 1.44759 18 1.99988 18V16ZM4.99988 9H3.99988H4.99988ZM18.9999 9H19.9999H18.9999ZM13.7298 21L14.5948 21.5018C14.7743 21.1924 14.7749 20.8108 14.5964 20.5009C14.4179 20.191 14.0875 20 13.7298 20V21ZM10.2698 21V20C9.91219 20 9.58178 20.191 9.40328 20.5009C9.22478 20.8108 9.22537 21.1924 9.40482 21.5018L10.2698 21ZM21.9999 16H1.99988V18H21.9999V16ZM1.99988 18C4.20902 18 5.99988 16.2091 5.99988 14H3.99988C3.99988 15.1046 3.10445 16 1.99988 16V18ZM5.99988 14V9H3.99988V14H5.99988ZM5.99988 9C5.99988 5.68629 8.68617 3 11.9999 3V1C7.5816 1 3.99988 4.58172 3.99988 9H5.99988ZM11.9999 3C15.3136 3 17.9999 5.68629 17.9999 9H19.9999C19.9999 4.58172 16.4182 1 11.9999 1V3ZM17.9999 9V14H19.9999V9H17.9999ZM17.9999 14C17.9999 16.2091 19.7907 18 21.9999 18V16C20.8953 16 19.9999 15.1046 19.9999 14H17.9999ZM12.8648 20.4982C12.6859 20.8066 12.3564 20.9965 11.9998 20.9965V22.9965C13.0694 22.9965 14.0581 22.427 14.5948 21.5018L12.8648 20.4982ZM11.9998 20.9965C11.6433 20.9965 11.3137 20.8066 11.1348 20.4982L9.40482 21.5018C9.94152 22.427 10.9302 22.9965 11.9998 22.9965V20.9965ZM10.2698 22H13.7298V20H10.2698V22Z" fill="#333333"/>
</svg>
