<svg width="24" height="25" viewBox="0 0 24 25" fill="none" xmlns="http://www.w3.org/2000/svg">
<path d="M16.5 17V21.5H4.5V3.5H12V2H4.5C4.10218 2 3.72064 2.15804 3.43934 2.43934C3.15804 2.72064 3 3.10218 3 3.5V21.5C3 21.8978 3.15804 22.2794 3.43934 22.5607C3.72064 22.842 4.10218 23 4.5 23H16.5C16.8978 23 17.2794 22.842 17.5607 22.5607C17.842 22.2794 18 21.8978 18 21.5V17H16.5Z" fill="#333333" fill-opacity="0.5"/>
<path d="M22.155 4.81998L19.68 2.34498C19.4557 2.12511 19.1541 2.00195 18.84 2.00195C18.5259 2.00195 18.2243 2.12511 18 2.34498L7.5 12.845V17H11.6475L22.1475 6.49998C22.3674 6.27567 22.4905 5.97409 22.4905 5.65998C22.4905 5.34588 22.3674 5.0443 22.1475 4.81998H22.155ZM11.025 15.5H9V13.475L16.08 6.38748L18.1125 8.41998L11.025 15.5ZM19.17 7.36248L17.1375 5.32998L18.84 3.62748L20.8725 5.65998L19.17 7.36248Z" fill="#333333" fill-opacity="0.5"/>
</svg>
