<svg width="24" height="24" viewBox="0 0 24 24" fill="none" xmlns="http://www.w3.org/2000/svg">
<path fill-rule="evenodd" clip-rule="evenodd" d="M11.9999 15C13.6567 15 14.9999 13.6569 14.9999 12C14.9999 10.3431 13.6567 9 11.9999 9C10.343 9 8.99988 10.3431 8.99988 12C8.99988 13.6569 10.343 15 11.9999 15Z" stroke="#333333" stroke-width="2" stroke-linecap="round" stroke-linejoin="round"/>
<path fill-rule="evenodd" clip-rule="evenodd" d="M19.3999 15C19.1275 15.6171 19.2582 16.3378 19.7299 16.82L19.7899 16.88C20.1654 17.2551 20.3765 17.7642 20.3765 18.295C20.3765 18.8258 20.1654 19.3349 19.7899 19.71C19.4147 20.0856 18.9057 20.2966 18.3749 20.2966C17.8441 20.2966 17.335 20.0856 16.9599 19.71L16.8999 19.65C16.4177 19.1783 15.697 19.0477 15.0799 19.32C14.4754 19.5791 14.0825 20.1724 14.0799 20.83V21C14.0799 22.1046 13.1844 23 12.0799 23C10.9753 23 10.0799 22.1046 10.0799 21V20.91C10.064 20.2327 9.63575 19.6339 8.99988 19.4C8.38279 19.1277 7.66206 19.2583 7.17988 19.73L7.11988 19.79C6.74474 20.1656 6.2357 20.3766 5.70488 20.3766C5.17406 20.3766 4.66501 20.1656 4.28988 19.79C3.91432 19.4149 3.7033 18.9058 3.7033 18.375C3.7033 17.8442 3.91432 17.3351 4.28988 16.96L4.34988 16.9C4.82154 16.4178 4.95222 15.6971 4.67988 15.08C4.42081 14.4755 3.82752 14.0826 3.16988 14.08H2.99988C1.89531 14.08 0.999878 13.1846 0.999878 12.08C0.999878 10.9754 1.89531 10.08 2.99988 10.08H3.08988C3.76721 10.0642 4.36601 9.63587 4.59988 9C4.87222 8.38291 4.74154 7.66219 4.26988 7.18L4.20988 7.12C3.83432 6.74486 3.6233 6.23582 3.6233 5.705C3.6233 5.17418 3.83432 4.66514 4.20988 4.29C4.58501 3.91445 5.09406 3.70343 5.62488 3.70343C6.1557 3.70343 6.66474 3.91445 7.03988 4.29L7.09988 4.35C7.58206 4.82167 8.30279 4.95235 8.91988 4.68H8.99988C9.60435 4.42093 9.99726 3.82764 9.99988 3.17V3C9.99988 1.89543 10.8953 1 11.9999 1C13.1044 1 13.9999 1.89543 13.9999 3V3.09C14.0025 3.74764 14.3954 4.34093 14.9999 4.6C15.617 4.87235 16.3377 4.74167 16.8199 4.27L16.8799 4.21C17.255 3.83445 17.7641 3.62343 18.2949 3.62343C18.8257 3.62343 19.3347 3.83445 19.7099 4.21C20.0854 4.58514 20.2965 5.09418 20.2965 5.625C20.2965 6.15582 20.0854 6.66486 19.7099 7.04L19.6499 7.1C19.1782 7.58219 19.0475 8.30291 19.3199 8.92V9C19.5789 9.60447 20.1722 9.99738 20.8299 10H20.9999C22.1044 10 22.9999 10.8954 22.9999 12C22.9999 13.1046 22.1044 14 20.9999 14H20.9099C20.2522 14.0026 19.6589 14.3955 19.3999 15Z" stroke="#333333" stroke-width="2" stroke-linecap="round" stroke-linejoin="round"/>
</svg>
