<svg width="24" height="24" viewBox="0 0 24 24" fill="none" xmlns="http://www.w3.org/2000/svg">
<path fill-rule="evenodd" clip-rule="evenodd" d="M3 19.875C3 21.324 4.176 22.5 5.625 22.5H9.375C9.67337 22.5 9.95952 22.3815 10.1705 22.1705C10.3815 21.9595 10.5 21.6734 10.5 21.375C10.5 21.0766 10.3815 20.7905 10.1705 20.5795C9.95952 20.3685 9.67337 20.25 9.375 20.25H5.625C5.52554 20.25 5.43016 20.2105 5.35984 20.1402C5.28951 20.0698 5.25 19.9745 5.25 19.875V4.125C5.25 3.918 5.418 3.75 5.625 3.75H9.375C9.67337 3.75 9.95952 3.63147 10.1705 3.42049C10.3815 3.20952 10.5 2.92337 10.5 2.625C10.5 2.32663 10.3815 2.04048 10.1705 1.82951C9.95952 1.61853 9.67337 1.5 9.375 1.5H5.625C4.92881 1.5 4.26113 1.77656 3.76884 2.26884C3.27656 2.76113 3 3.42881 3 4.125V19.875ZM18.66 13.125H10.125C9.82663 13.125 9.54048 13.0065 9.3295 12.7955C9.11853 12.5845 9 12.2984 9 12C9 11.7016 9.11853 11.4155 9.3295 11.2045C9.54048 10.9935 9.82663 10.875 10.125 10.875H18.66L15.705 7.92C15.5945 7.81701 15.5058 7.69281 15.4443 7.55481C15.3828 7.41681 15.3498 7.26784 15.3471 7.11678C15.3444 6.96573 15.3722 6.81569 15.4288 6.6756C15.4854 6.53552 15.5696 6.40827 15.6764 6.30144C15.7833 6.19461 15.9105 6.1104 16.0506 6.05382C16.1907 5.99723 16.3407 5.96945 16.4918 5.97211C16.6428 5.97478 16.7918 6.00784 16.9298 6.06933C17.0678 6.13082 17.192 6.21947 17.295 6.33L22.17 11.205C22.3807 11.4159 22.499 11.7019 22.499 12C22.499 12.2981 22.3807 12.5841 22.17 12.795L17.295 17.67C17.192 17.7805 17.0678 17.8692 16.9298 17.9307C16.7918 17.9922 16.6428 18.0252 16.4918 18.0279C16.3407 18.0306 16.1907 18.0028 16.0506 17.9462C15.9105 17.8896 15.7833 17.8054 15.6764 17.6986C15.5696 17.5917 15.4854 17.4645 15.4288 17.3244C15.3722 17.1843 15.3444 17.0343 15.3471 16.8832C15.3498 16.7322 15.3828 16.5832 15.4443 16.4452C15.5058 16.3072 15.5945 16.183 15.705 16.08L18.66 13.125Z" fill="#333333" fill-opacity="0.7"/>
</svg>
